<?xml version="1.0" encoding="UTF-8" standalone="no"?>
<svg
   xmlns:dc="http://purl.org/dc/elements/1.1/"
   xmlns:cc="http://creativecommons.org/ns#"
   xmlns:rdf="http://www.w3.org/1999/02/22-rdf-syntax-ns#"
   xmlns:svg="http://www.w3.org/2000/svg"
   xmlns="http://www.w3.org/2000/svg"
   xmlns:sodipodi="http://sodipodi.sourceforge.net/DTD/sodipodi-0.dtd"
   xmlns:inkscape="http://www.inkscape.org/namespaces/inkscape"
   version="1.1"
   id="Capa_1"
   x="0px"
   y="0px"
   width="511.991px"
   height="511.99px"
   viewBox="0 0 511.991 511.99"
   style="enable-background:new 0 0 511.991 511.99;"
   xml:space="preserve"
   sodipodi:docname="logo.svg"
   inkscape:version="1.0 (4035a4fb49, 2020-05-01)"
   inkscape:export-xdpi="6.0001173"
   inkscape:export-ydpi="6.0001173"><metadata
   id="metadata82"><rdf:RDF><cc:Work
       rdf:about=""><dc:format>image/svg+xml</dc:format><dc:type
         rdf:resource="http://purl.org/dc/dcmitype/StillImage" /><dc:title /></cc:Work></rdf:RDF></metadata><defs
   id="defs80"><marker
     inkscape:stockid="DotL"
     orient="auto"
     refY="0.0"
     refX="0.0"
     id="DotL"
     style="overflow:visible"
     inkscape:isstock="true"><path
       id="path1184"
       d="M -2.5,-1.0 C -2.5,1.7600000 -4.7400000,4.0 -7.5,4.0 C -10.260000,4.0 -12.5,1.7600000 -12.5,-1.0 C -12.5,-3.7600000 -10.260000,-6.0 -7.5,-6.0 C -4.7400000,-6.0 -2.5,-3.7600000 -2.5,-1.0 z "
       style="fill-rule:evenodd;stroke:#000000;stroke-width:1pt;stroke-opacity:1;fill:#000000;fill-opacity:1"
       transform="scale(0.8) translate(7.4, 1)" /></marker></defs><sodipodi:namedview
   inkscape:document-rotation="0"
   pagecolor="#ffffff"
   bordercolor="#666666"
   borderopacity="1"
   objecttolerance="10"
   gridtolerance="10"
   guidetolerance="10"
   inkscape:pageopacity="0"
   inkscape:pageshadow="2"
   inkscape:window-width="1916"
   inkscape:window-height="1036"
   id="namedview78"
   showgrid="false"
   inkscape:zoom="0.58731952"
   inkscape:cx="581.67212"
   inkscape:cy="485.65792"
   inkscape:window-x="0"
   inkscape:window-y="20"
   inkscape:window-maximized="1"
   inkscape:current-layer="Capa_1" />
<g
   id="g75"
   transform="matrix(0.51494235,0,0,0.5150948,222.35496,16)">
	<path
   d="M 267.803,327.375 C 157.959,423.438 20.834,528.5 2.178,509.812 -16.51,491.124 88.553,353.999 184.553,244.156 Z M 501.397,169.703 462.459,130.765 c 17.031,-25.219 22.25,-43.25 20.5,-57.172 L 511.99,44.546 467.458,0 437.802,29.656 c -24.719,-2.313 -61.75,16.5 -128.75,83.469 -24.688,24.703 -55.312,57.828 -86.999,93.984 l 83.5,83.578 c 36.219,-31.703 69.312,-62.328 94.03,-87.047 17.688,-17.719 31.906,-33.25 43.375,-47.109 l 24.5,24.484 -79.188,79.188 c -6.281,6.25 -6.281,16.359 0,22.609 6.25,6.25 16.375,6.25 22.625,0 l 90.5,-90.484 c 6.252,-6.25 6.252,-16.375 0.002,-22.625 z"
   id="path73" />
</g>
<g
   id="g913"
   style="opacity:1"
   transform="matrix(1.0004036,0,0,1.0006998,-20.634237,16.451553)"><path
     style="color:#000000;font-style:normal;font-variant:normal;font-weight:normal;font-stretch:normal;font-size:medium;line-height:normal;font-family:sans-serif;font-variant-ligatures:normal;font-variant-position:normal;font-variant-caps:normal;font-variant-numeric:normal;font-variant-alternates:normal;font-variant-east-asian:normal;font-feature-settings:normal;font-variation-settings:normal;text-indent:0;text-align:start;text-decoration:none;text-decoration-line:none;text-decoration-style:solid;text-decoration-color:#000000;letter-spacing:normal;word-spacing:normal;text-transform:none;writing-mode:lr-tb;direction:ltr;text-orientation:mixed;dominant-baseline:auto;baseline-shift:baseline;text-anchor:start;white-space:normal;shape-padding:0;shape-margin:0;inline-size:0;clip-rule:nonzero;display:inline;overflow:visible;visibility:visible;isolation:auto;mix-blend-mode:normal;color-interpolation:sRGB;color-interpolation-filters:linearRGB;solid-color:#000000;solid-opacity:1;vector-effect:none;fill:#000000;fill-opacity:1;fill-rule:evenodd;stroke:none;stroke-width:3.77953;stroke-linecap:butt;stroke-linejoin:miter;stroke-miterlimit:4;stroke-dasharray:none;stroke-dashoffset:0;stroke-opacity:1;color-rendering:auto;image-rendering:auto;shape-rendering:auto;text-rendering:auto;enable-background:accumulate;stop-color:#000000;stop-opacity:1"
     d="m 253.13681,205.15118 c -31.41603,10.67969 -60.21779,27.56526 -87.4428,46.34872 -16.84079,12.89881 -32.73071,27.85663 -43.84744,46.13351 -6.77247,11.13452 -7.66815,15.4071 -12.10656,27.53145 -6.87425,21.95322 -8.69119,44.9206 -5.54813,67.70091 0.58586,4.24624 1.52665,8.4359 2.28998,12.65384 2.94232,8.90082 4.82696,16.86771 10.41009,24.65681 13.48803,18.81732 36.01415,27.67182 56.59328,35.9833 22.64873,7.4478 46.53769,13.06802 70.56819,10.55502 14.28904,-1.49429 22.35899,-4.46319 36.00998,-8.40168 26.13846,-11.48986 52.02011,-25.34416 71.66272,-46.44106 12.18694,-13.08924 21.45807,-27.90341 30.45192,-43.22187 2.00688,-4.37691 4.36655,-8.60869 6.02065,-13.13073 6.52043,-17.82582 7.64205,-37.57332 4.82204,-56.22338 -0.63702,-4.21293 -1.70145,-8.35005 -2.55217,-12.52507 -5.20937,-17.51896 -15.09945,-32.92308 -30.07415,-43.64706 -2.62908,-1.88279 -5.51019,-3.38609 -8.26529,-5.07913 -12.55563,-6.81895 -26.30301,-9.78679 -40.39831,-10.91989 -10.54422,-1.09617 -20.83292,1.02175 -31.019,3.45356 -6.26736,1.39548 -3.20511,0.75375 -9.18437,1.93656 l -25.13036,19.00721 v 0 c 6.10805,-1.1708 2.98824,-0.54059 9.35761,-1.89963 10.03171,-2.40826 20.06524,-5.1592 30.5103,-4.25266 13.89752,0.7285 27.58917,2.96008 40.16333,9.31165 2.69366,1.56017 5.51067,2.92453 8.08097,4.68051 14.63067,9.9954 24.2957,24.82927 29.45489,41.60047 2.12463,10.15505 3.55471,14.85173 3.88191,25.40854 0.58819,18.97758 -3.72907,37.50471 -12.62088,54.25609 -2.63315,4.48765 -5.06767,9.09792 -7.89945,13.46295 -6.06648,9.35117 -14.63153,20.76134 -22.34188,28.74325 -4.41578,4.5713 -11.05842,7.2537 -14.10213,12.83328 -1.52967,2.80412 11.66531,-5.09831 8.95796,-3.40324 -5.28252,3.30736 -11.17338,5.52541 -16.76007,8.28811 -13.43838,4.12182 -21.39339,7.20299 -35.46565,8.92512 -23.76446,2.90823 -47.48526,-2.22401 -69.97447,-9.49499 -19.91565,-7.9403 -41.78559,-16.39033 -54.73638,-34.66695 -5.57237,-7.86392 -7.04197,-14.91267 -9.89836,-23.90347 -0.72621,-4.14487 -1.6186,-8.26404 -2.17863,-12.43462 -3.00247,-22.35946 -1.14639,-44.83968 5.81522,-66.3231 4.63493,-12.03904 5.40285,-15.77314 12.34429,-26.78748 11.32571,-17.97107 27.22992,-32.58177 44.1606,-45.1332 4.41128,-2.94343 11.36636,-3.86685 13.23384,-8.83028 1.70458,-4.53045 -10.25608,2.96401 -12.61666,7.18992 -2.16018,3.86715 7.87139,-4.07325 11.90199,-5.91051 5.15733,-2.35086 12.38787,-5.01721 17.8972,-6.97253 1.44308,-0.51216 2.90267,-0.97654 4.35401,-1.46481 z"
     id="path915" /><path
     style="color:#000000;font-style:normal;font-variant:normal;font-weight:normal;font-stretch:normal;font-size:medium;line-height:normal;font-family:sans-serif;font-variant-ligatures:normal;font-variant-position:normal;font-variant-caps:normal;font-variant-numeric:normal;font-variant-alternates:normal;font-variant-east-asian:normal;font-feature-settings:normal;font-variation-settings:normal;text-indent:0;text-align:start;text-decoration:none;text-decoration-line:none;text-decoration-style:solid;text-decoration-color:#000000;letter-spacing:normal;word-spacing:normal;text-transform:none;writing-mode:lr-tb;direction:ltr;text-orientation:mixed;dominant-baseline:auto;baseline-shift:baseline;text-anchor:start;white-space:normal;shape-padding:0;shape-margin:0;inline-size:0;clip-rule:nonzero;display:inline;overflow:visible;visibility:visible;isolation:auto;mix-blend-mode:normal;color-interpolation:sRGB;color-interpolation-filters:linearRGB;solid-color:#000000;solid-opacity:1;vector-effect:none;fill:#000000;fill-opacity:1;fill-rule:evenodd;stroke:none;stroke-width:3.77953;stroke-linecap:butt;stroke-linejoin:miter;stroke-miterlimit:4;stroke-dasharray:none;stroke-dashoffset:0;stroke-opacity:1;color-rendering:auto;image-rendering:auto;shape-rendering:auto;text-rendering:auto;enable-background:accumulate;stop-color:#000000;stop-opacity:1"
     d="m 252.5293,203.36133 c -24.98948,5.52632 -31.24265,7.2555 -80.77154,37.67162 -16.94512,12.97872 -40.23105,37.05055 -51.52537,55.6194 -6.84556,11.2547 -7.85022,15.79645 -12.26758,27.86328 l -0.0156,0.041 -0.0117,0.043 c -6.95819,22.22129 -8.79723,45.47703 -5.61719,68.52539 0.6003,4.35086 1.54881,8.56449 2.30274,12.73047 l 0.0234,0.13086 0.041,0.12695 c 2.91233,8.81008 4.84668,17.04271 10.66797,25.16406 13.90491,19.39892 36.85462,28.32809 57.42187,36.63477 l 0.0586,0.0234 0.0586,0.0195 c 22.75533,7.48285 46.90623,13.19546 71.35547,10.63867 14.47336,-1.51357 22.73934,-4.54148 36.33789,-8.46484 l 0.12109,-0.0352 0.11524,-0.0508 c 26.23007,-11.53013 52.35956,-25.48198 72.28516,-46.88281 12.3458,-13.25987 21.68761,-28.20404 30.69921,-43.55274 l 0.0469,-0.082 0.041,-0.0879 c 1.96532,-4.28625 4.35356,-8.56017 6.07618,-13.26953 6.65109,-18.18303 7.77658,-38.23602 4.91601,-57.1543 -0.6562,-4.33979 -1.73045,-8.50698 -2.56836,-12.61914 l -0.0176,-0.082 -0.0234,-0.0801 c -5.30936,-17.85522 -15.43422,-33.65111 -30.78516,-44.64453 -2.77329,-1.98606 -5.69546,-3.50573 -8.375,-5.15234 l -0.043,-0.0274 -0.0449,-0.0234 c -12.84891,-6.97824 -26.86019,-9.98971 -41.10547,-11.13868 -10.91898,-1.13513 -21.42775,1.05314 -31.65234,3.49414 -6.20016,1.38076 -3.14479,0.7412 -9.11328,1.92188 l -0.42578,0.084 -25.47657,19.26953 1.49414,3.36329 c 6.10176,-1.1696 3.03368,-0.55057 9.39649,-1.90821 l 0.0234,-0.006 0.0234,-0.004 c 10.07123,-2.41775 19.89315,-5.07804 29.90625,-4.20899 l 0.0312,0.004 0.0332,0.002 c 13.75495,0.72103 27.15838,2.9266 39.39453,9.10352 2.74686,1.58598 5.49119,2.92664 7.88281,4.56055 14.21824,9.71363 23.63755,24.13351 28.69726,40.55078 2.11761,10.10071 3.49555,14.60461 3.81641,24.95703 0.57796,18.64745 -3.65812,36.83357 -12.39258,53.29492 -2.64903,4.51836 -5.06518,9.08499 -7.82422,13.33789 -6.00647,9.25867 -14.54425,20.6194 -22.11523,28.45703 -10.10728,11.89733 -19.5741,16.45752 -21.21484,17.25977 -13.4087,4.11687 -21.18357,7.12833 -35.02539,8.82226 -23.33113,2.8552 -46.76296,-2.18123 -69.11524,-9.40429 -19.90951,-7.93748 -41.30946,-16.31335 -53.82422,-33.97461 -5.33109,-7.52342 -6.74346,-14.25058 -9.60351,-23.27344 -0.73001,-4.14592 -1.60199,-8.1988 -2.14258,-12.22461 -2.96593,-22.08733 -1.13285,-44.26937 5.73633,-65.47461 4.61907,-12.00832 5.29678,-15.50508 12.14843,-26.37695 16.46292,-22.25395 13.9302,-17.06551 38.4886,-36.35954 4.9e-4,-2.6e-4 17.51627,-11.70037 17.5166,-11.70037 7.32242,-3.16304 14.96301,-9.93821 21.93035,-12.27803 l 0.30274,-0.10157 25.47461,-19.79101 z m -58.17969,32.01953 c -15.13261,18.12065 -3.52576,3.11875 -34.96666,27.61858 -7.01064,11.12414 -19.89298,36.99309 -24.50598,48.97517 l -0.0176,0.0469 -0.0156,0.0488 c -7.05042,21.75748 -8.929,44.53134 -5.89063,67.15821 0.57343,4.27035 1.47193,8.41447 2.18946,12.50976 l 0.0234,0.125 0.0371,0.1211 c 2.82673,8.89742 4.36847,16.25314 10.15821,24.42382 13.37217,18.8713 35.67613,27.39327 55.57812,35.32813 l 0.0586,0.0234 0.0605,0.0195 c 22.61164,7.31056 46.60412,12.53147 70.78516,9.57226 14.25679,-1.74471 22.40321,-4.88843 35.78906,-8.99414 l 0.14649,-0.0449 0.13867,-0.0664 c 5.47379,-2.70687 11.42781,-4.93983 16.92383,-8.38086 0.17556,-0.10992 0.27616,-0.17284 0.39453,-0.2539 0.0296,-0.0203 0.0571,-0.0385 0.12305,-0.0899 0.0329,-0.0257 0.0727,-0.0515 0.16601,-0.14257 0.0467,-0.0455 0.21251,-0.24753 0.21289,-0.24805 3.8e-4,-5.3e-4 0.35354,-1.23799 0.35352,-1.23828 -2e-5,-2.9e-4 -1.63435,-1.74409 -1.63477,-1.74414 -4.1e-4,-6e-5 -0.54798,0.004 -0.6543,0.0273 -0.21263,0.0462 -0.25534,0.0741 -0.30468,0.0937 -0.0987,0.0394 -0.12722,0.0561 -0.16016,0.0723 -0.26354,0.12917 -0.46731,0.24761 -0.88281,0.47656 -0.20748,0.11432 -0.61467,0.32524 -0.87696,0.46875 2.78541,-2.16974 5.99971,-4.27729 8.76563,-7.14063 7.84972,-8.12619 16.44187,-19.58367 22.56836,-29.02734 2.89329,-4.45984 5.33881,-9.09624 7.94336,-13.53516 l 0.0195,-0.0351 0.0195,-0.0352 c 9.04359,-17.03731 13.43809,-35.89933 12.83985,-55.20117 -0.33195,-10.70988 -1.80619,-15.63333 -3.91993,-25.73633 l -0.0176,-0.0859 -0.0274,-0.084 c -5.26213,-17.10584 -15.16369,-32.33748 -30.19336,-42.60547 -2.72487,-1.86158 -5.5885,-3.24065 -8.20117,-4.7539 l -0.0469,-0.0274 -0.0469,-0.0254 c -12.89412,-6.51319 -26.854,-8.76968 -40.87305,-9.50781 -10.86964,-0.93887 -21.10762,1.90151 -31.09375,4.29883 l 0.0449,-0.0117 c -0.81652,0.17422 -0.65044,0.12559 -1.19336,0.24218 l 18.16406,-13.73828 c 4.92172,-0.97092 2.82854,-0.52548 8.79297,-1.85351 l 0.0137,-0.004 0.0137,-0.004 c 10.14757,-2.42262 20.21531,-4.46932 30.38477,-3.41211 l 0.0215,0.002 0.0234,0.002 c 13.9254,1.11945 27.38701,4.04388 39.63281,10.69141 2.8056,1.71958 5.61926,3.19724 8.08203,4.96094 14.58811,10.44713 24.23546,25.44779 29.34766,42.61523 0.8585,4.19199 1.89823,8.25837 2.50976,12.30273 2.77946,18.38184 1.66126,37.82436 -4.72851,55.29297 -1.57119,4.29538 -3.87142,8.45099 -5.90625,12.87305 -8.96649,15.26963 -18.15931,29.93579 -30.17383,42.83984 -19.33513,20.76666 -44.93053,34.51219 -70.94336,45.95313 -13.60456,3.93 -21.49344,6.82958 -35.54297,8.29883 -23.5948,2.46743 -47.20492,-3.05037 -69.73242,-10.45508 -20.5718,-8.30822 -42.64039,-17.08888 -55.69727,-35.30469 -5.31735,-7.41831 -7.16399,-15.08769 -10.10937,-24.01953 -0.76809,-4.22466 -1.68825,-8.34943 -2.25391,-12.44922 -3.10551,-22.50817 -1.31265,-45.18366 5.47461,-66.86523 4.42934,-12.10895 5.23967,-16.14083 11.92188,-27.12696 18.69436,-24.18825 75.57849,-69.18494 70.88867,-63.23437 z"
     id="path917"
     sodipodi:nodetypes="ccscccscccscccscccscccsscccsccccccccccccccccscscsccscscscccccccccccccscccsscsssccssssssscccscsscccscccscccccccccccccccscsscscscscscccc" /></g><path
   style="fill:none;stroke:#000000;stroke-width:8.00442;stroke-linecap:butt;stroke-linejoin:bevel;stroke-miterlimit:4;stroke-dasharray:none;stroke-opacity:1"
   d="m 78.80511,307.55219 c 38.16147,-71.51156 102.75008,-91.25896 102.75008,-91.25896 v 0"
   id="path921" /><path
   id="path921-3"
   d="M 53.101799,293.64217 C 98.086402,212.09767 174.22318,189.57977 174.22318,189.57977 v 0"
   style="fill:none;stroke:#000000;stroke-width:9.00496;stroke-linecap:butt;stroke-linejoin:miter;stroke-miterlimit:4;stroke-dasharray:none;stroke-opacity:1" /><path
   style="fill:none;stroke:#000000;stroke-width:10.0055;stroke-linecap:butt;stroke-linejoin:miter;stroke-miterlimit:4;stroke-dasharray:none;stroke-opacity:1"
   d="M 30.376525,280.88762 C 81.146858,189.20449 167.07605,163.88688 167.07605,163.88688 v 0"
   id="path921-3-6" /><text
   xml:space="preserve"
   style="font-style:normal;font-weight:normal;font-size:48px;line-height:1.25;font-family:sans-serif;letter-spacing:0px;word-spacing:0px;fill:#000000;fill-opacity:1;stroke:none"
   x="49.629131"
   y="81.359932"
   id="text1407"><tspan
     sodipodi:role="line"
     id="tspan1405"
     x="49.629131"
     y="81.359932"
     style="font-style:normal;font-variant:normal;font-weight:normal;font-stretch:normal;font-size:48px;font-family:sans-serif;-inkscape-font-specification:sans-serif">Imgxplain</tspan></text></svg>
